<svg version="1.1" xmlns="http://www.w3.org/2000/svg" xmlns:xlink="http://www.w3.org/1999/xlink" width="192.375" height="243.84375" viewBox="0,0,192.375,243.84375"><g transform="translate(-142.54688,-55.125)"><g data-paper-data="{&quot;isPaintingLayer&quot;:true}" fill-rule="nonzero" stroke="none" stroke-width="0" stroke-linecap="butt" stroke-linejoin="miter" stroke-miterlimit="10" stroke-dasharray="" stroke-dashoffset="0" style="mix-blend-mode: normal"><path d="M271.64063,285.04688c0,7.68884 -15.11039,13.92188 -33.75,13.92188c-18.63961,0 -33.75,-6.23304 -33.75,-13.92187c0,-7.68884 15.11039,-13.92187 33.75,-13.92187c18.63961,0 33.75,6.23304 33.75,13.92188z" fill="#a7a7a7"/><path d="M142.54688,151.3125c0,-53.12289 43.06461,-96.1875 96.1875,-96.1875c53.12289,0 96.1875,43.06461 96.1875,96.1875c0,53.12289 -43.06461,96.1875 -96.1875,96.1875c-53.12289,0 -96.1875,-43.06461 -96.1875,-96.1875z" fill="#ffffff"/><path d="M204.14062,250.42676c0,-2.68426 0,-5.62646 0,-7.01367c0,-3.12051 3.47021,-3.50684 6.6625,-3.50684c14.2792,0 47.19735,0 55.35,0c3.96869,0 7.175,2.13226 7.175,6.01172c0,0.99681 0,2.48316 0,4.00781c0,3.84199 -2.73214,6.01172 -6.6625,6.01172c-14.86643,0 -50.02092,0 -57.4,0c-2.66336,0 -5.125,-5.51074 -5.125,-5.51074z" fill="#969696"/><path d="M204.07812,263.86426c0,-2.68427 0,-5.62647 0,-7.01368c0,-3.12051 3.47021,-3.50683 6.6625,-3.50683c14.2792,0 47.19735,0 55.35,0c3.96869,0 7.175,2.13226 7.175,6.01172c0,0.9968 0,2.48316 0,4.00781c0,3.84199 -2.73214,6.01172 -6.6625,6.01172c-14.86643,0 -50.02091,0 -57.4,0c-2.66335,0 -5.125,-5.51074 -5.125,-5.51074z" fill="#969696"/><path d="M203.17188,278.14551c0,-2.68426 0,-5.62646 0,-7.01367c0,-3.12051 3.47021,-3.50684 6.6625,-3.50684c14.2792,0 47.19735,0 55.35,0c3.96869,0 7.175,2.13227 7.175,6.01172c0,0.9968 0,2.48316 0,4.00781c0,3.84199 -2.73213,6.01172 -6.6625,6.01172c-14.86643,0 -50.02091,0 -57.4,0c-2.66335,0 -5.125,-5.51074 -5.125,-5.51074z" fill="#969696"/></g></g></svg>