<?xml version="1.0" encoding="UTF-8" standalone="no"?>
<svg
   version="1.1"
   width="192.375"
   height="243.84375"
   viewBox="0,0,192.375,243.84375"
   id="svg43"
   sodipodi:docname="ON.svg"
   inkscape:version="1.2.2 (732a01da63, 2022-12-09)"
   xmlns:inkscape="http://www.inkscape.org/namespaces/inkscape"
   xmlns:sodipodi="http://sodipodi.sourceforge.net/DTD/sodipodi-0.dtd"
   xmlns="http://www.w3.org/2000/svg"
   xmlns:svg="http://www.w3.org/2000/svg">
  <defs
     id="defs47" />
  <sodipodi:namedview
     id="namedview45"
     pagecolor="#ffffff"
     bordercolor="#666666"
     borderopacity="1.0"
     inkscape:showpageshadow="2"
     inkscape:pageopacity="0.0"
     inkscape:pagecheckerboard="0"
     inkscape:deskcolor="#d1d1d1"
     showgrid="false"
     inkscape:zoom="3.3053954"
     inkscape:cx="96.206343"
     inkscape:cy="121.92188"
     inkscape:window-width="1920"
     inkscape:window-height="1009"
     inkscape:window-x="-8"
     inkscape:window-y="-8"
     inkscape:window-maximized="1"
     inkscape:current-layer="svg43" />
  <path
     d="m 128.18615,230.22442 c 0,7.68884 -15.11039,13.92188 -33.750004,13.92188 -18.63961,0 -33.75,-6.23304 -33.75,-13.92187 0,-7.68884 15.11039,-13.92187 33.75,-13.92187 18.639614,0 33.750004,6.23304 33.750004,13.92188 z"
     fill="#a7a7a7"
     id="path29"
     style="mix-blend-mode:normal;fill-rule:nonzero;stroke:none;stroke-width:0;stroke-linecap:butt;stroke-linejoin:miter;stroke-miterlimit:10;stroke-dasharray:none;stroke-dashoffset:0" />
  <path
     d="m -0.90760445,96.490036 c 0,-53.12289 43.06461045,-96.18749969 96.18750045,-96.18749969 53.122894,0 96.187504,43.06460969 96.187504,96.18749969 0,53.122894 -43.06461,96.187504 -96.187504,96.187504 -53.12289,0 -96.18750045,-43.06461 -96.18750045,-96.187504 z"
     fill="#ffffff"
     id="path31"
     style="mix-blend-mode:normal;fill:#ffcc00;fill-rule:nonzero;stroke:none;stroke-width:0;stroke-linecap:butt;stroke-linejoin:miter;stroke-miterlimit:10;stroke-dasharray:none;stroke-dashoffset:0" />
  <path
     d="m 60.686136,195.6043 c 0,-2.68426 0,-5.62646 0,-7.01367 0,-3.12051 3.47021,-3.50684 6.6625,-3.50684 14.2792,0 47.197354,0 55.350004,0 3.96869,0 7.175,2.13226 7.175,6.01172 0,0.99681 0,2.48316 0,4.00781 0,3.84199 -2.73214,6.01172 -6.6625,6.01172 -14.86643,0 -50.020924,0 -57.400004,0 -2.66336,0 -5.125,-5.51074 -5.125,-5.51074 z"
     fill="#969696"
     id="path33"
     style="mix-blend-mode:normal;fill-rule:nonzero;stroke:none;stroke-width:0;stroke-linecap:butt;stroke-linejoin:miter;stroke-miterlimit:10;stroke-dasharray:none;stroke-dashoffset:0" />
  <path
     d="m 60.623636,209.0418 c 0,-2.68427 0,-5.62647 0,-7.01368 0,-3.12051 3.47021,-3.50683 6.6625,-3.50683 14.2792,0 47.197354,0 55.350004,0 3.96869,0 7.175,2.13226 7.175,6.01172 0,0.9968 0,2.48316 0,4.00781 0,3.84199 -2.73214,6.01172 -6.6625,6.01172 -14.86643,0 -50.020914,0 -57.400004,0 -2.66335,0 -5.125,-5.51074 -5.125,-5.51074 z"
     fill="#969696"
     id="path35"
     style="mix-blend-mode:normal;fill-rule:nonzero;stroke:none;stroke-width:0;stroke-linecap:butt;stroke-linejoin:miter;stroke-miterlimit:10;stroke-dasharray:none;stroke-dashoffset:0" />
  <path
     d="m 59.717396,223.32305 c 0,-2.68426 0,-5.62646 0,-7.01367 0,-3.12051 3.47021,-3.50684 6.6625,-3.50684 14.2792,0 47.197354,0 55.350004,0 3.96869,0 7.175,2.13227 7.175,6.01172 0,0.9968 0,2.48316 0,4.00781 0,3.84199 -2.73213,6.01172 -6.6625,6.01172 -14.86643,0 -50.020914,0 -57.400004,0 -2.66335,0 -5.125,-5.51074 -5.125,-5.51074 z"
     fill="#969696"
     id="path37"
     style="mix-blend-mode:normal;fill-rule:nonzero;stroke:none;stroke-width:0;stroke-linecap:butt;stroke-linejoin:miter;stroke-miterlimit:10;stroke-dasharray:none;stroke-dashoffset:0" />
</svg>
